<?xml version="1.0" encoding="UTF-8" standalone="no"?>
<!-- Created with Inkscape (http://www.inkscape.org/) -->

<svg
   xmlns:dc="http://purl.org/dc/elements/1.1/"
   xmlns:cc="http://creativecommons.org/ns#"
   xmlns:rdf="http://www.w3.org/1999/02/22-rdf-syntax-ns#"
   xmlns:svg="http://www.w3.org/2000/svg"
   xmlns="http://www.w3.org/2000/svg"
   version="1.1"
   width="540"
   height="540"
   id="svg3004"
   xml:space="preserve"><metadata
     id="metadata3010"><rdf:RDF><cc:Work
         rdf:about=""><dc:format>image/svg+xml</dc:format><dc:type
           rdf:resource="http://purl.org/dc/dcmitype/StillImage" /><dc:title></dc:title></cc:Work></rdf:RDF></metadata><defs
     id="defs3008"><clipPath
       id="clipPath3018"><path
         d="M 0,432 432,432 432,0 0,0 0,432 z"
         id="path3020" /></clipPath></defs><g
     transform="matrix(1.25,0,0,-1.25,0,540)"
     id="g3012"><g
       id="g3014"><g
         clip-path="url(#clipPath3018)"
         id="g3016"><g
           transform="translate(402.6194,217.2896)"
           id="g3022"><path
             d="m 0,0 c 0,-103.905 -84.225,-188.125 -188.13,-188.125 -103.894,0 -188.126,84.22 -188.126,188.125 0,103.893 84.232,188.126 188.126,188.126 C -84.225,188.126 0,103.893 0,0"
             id="path3024"
             style="fill:#70cfc2;fill-opacity:1;fill-rule:nonzero;stroke:none" /></g><g
           transform="translate(217.6555,290.4919)"
           id="g3026"><path
             d="M 0,0 48.685,-120.154 -24.848,-62.231 0,0 z M 86.488,-147.834 11.603,32.382 C 9.465,37.581 5.188,40.331 0,40.331 c -5.195,0 -9.783,-2.75 -11.918,-7.949 l -82.191,-197.677 28.115,0 32.538,81.503 97.093,-78.441 c 3.906,-3.159 6.723,-4.585 10.388,-4.585 7.333,0 13.744,5.5 13.744,13.438 0,1.289 -0.456,3.342 -1.281,5.546"
             id="path3028"
             style="fill:#ffffff;fill-opacity:1;fill-rule:nonzero;stroke:none" /></g></g></g></g></svg>